<svg xmlns="http://www.w3.org/2000/svg" viewBox="0 0 14.08 15.83"><defs><style>.cls-1{opacity:0.3;}.cls-2{fill:#fff;}</style></defs><title>Asset 2</title><g id="Layer_2" data-name="Layer 2"><g id="Logo"><path d="M7.46,15.75c6.19-2.64,6.65-10.26,6.62-12.92a1,1,0,0,0-.9-1A13.79,13.79,0,0,1,7.31.07a.52.52,0,0,0-.51,0A14,14,0,0,1,.9,1.86a1,1,0,0,0-.9,1C0,5.49.44,13.12,6.65,15.75A1,1,0,0,0,7.46,15.75Z"/><g class="cls-1"><path class="cls-2" d="M7,0A.51.51,0,0,0,6.8.07,14,14,0,0,1,.9,1.86a1,1,0,0,0-.9,1C0,5.49.44,13.12,6.65,15.75a1.09,1.09,0,0,0,.39.08"/></g><path class="cls-2" d="M12.54,5.91h-.78a2,2,0,0,0-1.72-1,2,2,0,0,0-1.68.91l-.85-.28a1.51,1.51,0,0,0-.94,0l-.85.28A2,2,0,0,0,4,4.91a2,2,0,0,0-1.72,1H1.54a.5.5,0,0,0,0,1H2a2,2,0,0,0,4,0s0-.09,0-.14l.85-.28a.58.58,0,0,1,.32,0l.85.28c0,.05,0,.09,0,.14a2,2,0,0,0,4,0h.5a.5.5,0,0,0,0-1ZM4,7.91a1,1,0,1,1,1-1A1,1,0,0,1,4,7.91Zm6,0a1,1,0,1,1,1-1A1,1,0,0,1,10,7.91Z"/></g></g></svg>