<svg xmlns="http://www.w3.org/2000/svg" viewBox="0 0 100.54 15.83"><defs><style>.cls-1{opacity:0.3;}.cls-2{fill:#fff;}.cls-3{fill:#1a1a1a;}</style></defs><title>Asset 3</title><g id="Layer_2" data-name="Layer 2"><g id="Logo"><path d="M7.46,15.75c6.19-2.64,6.65-10.26,6.62-12.92a1,1,0,0,0-.9-1A13.79,13.79,0,0,1,7.31.07a.52.52,0,0,0-.51,0A14,14,0,0,1,.9,1.86a1,1,0,0,0-.9,1C0,5.49.44,13.12,6.65,15.75A1,1,0,0,0,7.46,15.75Z"/><g class="cls-1"><path class="cls-2" d="M7,0A.51.51,0,0,0,6.8.07,14,14,0,0,1,.9,1.86a1,1,0,0,0-.9,1C0,5.49.44,13.12,6.65,15.75a1.09,1.09,0,0,0,.39.08"/></g><path class="cls-2" d="M12.54,5.91h-.78a2,2,0,0,0-1.72-1,2,2,0,0,0-1.68.91l-.85-.28a1.51,1.51,0,0,0-.94,0l-.85.28A2,2,0,0,0,4,4.91a2,2,0,0,0-1.72,1H1.54a.5.5,0,0,0,0,1H2a2,2,0,0,0,4,0s0-.09,0-.14l.85-.28a.58.58,0,0,1,.32,0l.85.28c0,.05,0,.09,0,.14a2,2,0,0,0,4,0h.5a.5.5,0,0,0,0-1ZM4,7.91a1,1,0,1,1,1-1A1,1,0,0,1,4,7.91Zm6,0a1,1,0,1,1,1-1A1,1,0,0,1,10,7.91Z"/><path class="cls-3" d="M19.67,1h4a10.37,10.37,0,0,1,2.84.31,3.1,3.1,0,0,1,1.7,1.39,4.9,4.9,0,0,1,.69,2.68,5.19,5.19,0,0,1-.56,2.54,3.32,3.32,0,0,1-1.53,1.46,7.82,7.82,0,0,1-3,.44H22.74V15H19.67Zm3.07,2.27V7.41h1c.84,0,1.38-.19,1.62-.58a2.78,2.78,0,0,0,.37-1.52A2.5,2.5,0,0,0,25.4,4a1.27,1.27,0,0,0-.65-.63,3.2,3.2,0,0,0-1.05-.14Z"/><path class="cls-3" d="M29.83,4.63h2.54V7.14q.69-2.64,2.46-2.64a3.25,3.25,0,0,1,.49,0V7.37a3.5,3.5,0,0,0-.48,0c-1.41,0-2.12,1.07-2.12,3.2V15H29.83Z"/><path class="cls-3" d="M44.13,9.81c0,3.6-1.4,5.39-4.2,5.39s-4.21-1.79-4.21-5.39,1.4-5.38,4.21-5.38S44.13,6.22,44.13,9.81Zm-3,0a8.68,8.68,0,0,0-.27-2.68,1,1,0,0,0-.94-.7A1,1,0,0,0,39,7.1a8.2,8.2,0,0,0-.29,2.72A9.75,9.75,0,0,0,39,12.46a1,1,0,0,0,1.94,0A9.26,9.26,0,0,0,41.14,9.82Z"/><path class="cls-3" d="M45.94,1.45l2.81-.09V4.63h1.9V6.91h-1.9v3.8a13,13,0,0,0,0,1.37.83.83,0,0,0,.31.53,1.42,1.42,0,0,0,.88.21l.82,0V15A8.4,8.4,0,0,1,49,15.2a3.39,3.39,0,0,1-2-.5,2.19,2.19,0,0,1-.89-1.26A10.69,10.69,0,0,1,45.94,11V6.91H44.79V4.63h1.15Z"/><path class="cls-3" d="M59.6,10.29H54.17v.58a3.22,3.22,0,0,0,.38,1.86,1.21,1.21,0,0,0,1,.47c.88,0,1.37-.59,1.48-1.77l2.58.17q-.69,3.6-4.11,3.6a3.81,3.81,0,0,1-3.21-1.42A6.09,6.09,0,0,1,51.19,10a6.4,6.4,0,0,1,1.16-4.12,3.83,3.83,0,0,1,3.12-1.42,3.88,3.88,0,0,1,2.94,1.25C59.2,6.52,59.6,8.06,59.6,10.29ZM56.87,8.62c0-.12,0-.22,0-.28,0-1.34-.45-2-1.35-2s-1.33.76-1.34,2.28Z"/><path class="cls-3" d="M68.71,8.45,66,8.55a3.68,3.68,0,0,0-.31-1.44.85.85,0,0,0-.83-.49c-1,0-1.45,1-1.45,3.06a6,6,0,0,0,.35,2.48,1.13,1.13,0,0,0,1,.71c.72,0,1.12-.64,1.19-1.92l2.69.17c-.24,2.73-1.59,4.08-4.06,4.08a3.66,3.66,0,0,1-3.06-1.34,6.47,6.47,0,0,1-1.06-4,6.34,6.34,0,0,1,1.11-4,3.79,3.79,0,0,1,3.12-1.38C67.18,4.43,68.49,5.77,68.71,8.45Z"/><path class="cls-3" d="M70.39,1.45l2.81-.09V4.63h1.91V6.91H73.2v3.8a12,12,0,0,0,0,1.37.82.82,0,0,0,.3.53,1.44,1.44,0,0,0,.88.21l.82,0V15a8.31,8.31,0,0,1-1.76.21,3.35,3.35,0,0,1-2-.5,2.17,2.17,0,0,1-.9-1.26A10.69,10.69,0,0,1,70.39,11V6.91H69.24V4.63h1.15Z"/><path class="cls-3" d="M79.94,1H83V15H79.94Z"/><path class="cls-3" d="M85.35,1h3.07V15H85.35Z"/><path class="cls-3" d="M90.75,1h3.32a9.09,9.09,0,0,1,3.5.58,4.43,4.43,0,0,1,2.16,2.14,9.21,9.21,0,0,1,.81,4.22,10.67,10.67,0,0,1-.49,3.34,6,6,0,0,1-1.3,2.3A3.87,3.87,0,0,1,97,14.7a9.36,9.36,0,0,1-2.51.29H90.75Zm3.08,2.4v9.2h.53A2.87,2.87,0,0,0,96,12.18,2.82,2.82,0,0,0,97,10.75,9.69,9.69,0,0,0,97.3,7.8a7.6,7.6,0,0,0-.39-2.75,2.58,2.58,0,0,0-1-1.31,3.12,3.12,0,0,0-1.59-.35Z"/></g></g></svg>